<svg width="96" height="96" viewBox="0 0 96 96" fill="none" xmlns="http://www.w3.org/2000/svg">
<path d="M70.3125 6H25.6875C14.8144 6 6 14.8144 6 25.6875V70.3125C6 81.1856 14.8144 90 25.6875 90H70.3125C81.1856 90 90 81.1856 90 70.3125V25.6875C90 14.8144 81.1856 6 70.3125 6Z" fill="#F4F2ED"/>
<path d="M33.8069 42.7372C33.8069 43.5359 33.8932 44.1833 34.0442 44.6584C34.2358 45.1929 34.4668 45.7124 34.7352 46.2127C34.8432 46.3853 34.8861 46.5579 34.8861 46.7092C34.8861 46.9251 34.7565 47.141 34.476 47.3565L33.1159 48.2635C32.9217 48.3928 32.7274 48.4577 32.5548 48.4577C32.3389 48.4577 32.123 48.3498 31.9071 48.1555C31.6163 47.8429 31.3561 47.5032 31.1301 47.141C30.8888 46.7262 30.6655 46.3012 30.4607 45.8672C28.777 47.8534 26.6615 48.8465 24.1141 48.8462C22.3009 48.8462 20.8545 48.3281 19.7967 47.2919C18.7391 46.2557 18.1993 44.8743 18.1993 43.1474C18.1993 41.3122 18.8471 39.8228 20.1638 38.7003C21.4806 37.5778 23.2292 37.0163 25.4525 37.0163C26.1866 37.0163 26.9422 37.0813 27.7409 37.1893C28.5395 37.2972 29.3599 37.4698 30.2235 37.6641V36.0881C30.2235 34.4475 29.878 33.3033 29.2089 32.6342C28.5179 31.9649 27.3524 31.6413 25.6901 31.6413C24.9344 31.6413 24.1574 31.7276 23.3588 31.9219C22.5601 32.1161 21.7828 32.3537 21.0271 32.6559C20.7817 32.7656 20.5293 32.8593 20.2718 32.9364C20.1208 32.9798 20.0126 33.0014 19.9263 33.0014C19.6244 33.0014 19.4728 32.7855 19.4728 32.332V31.2742C19.4728 30.929 19.5161 30.6697 19.6241 30.5188C19.732 30.3679 19.9263 30.2166 20.2285 30.0653C20.984 29.6768 21.8907 29.3531 22.9486 29.0941C24.0062 28.8132 25.1287 28.6839 26.3162 28.6839C28.8851 28.6839 30.7629 29.2667 31.9721 30.4322C33.1592 31.598 33.7636 33.3682 33.7636 35.7429V42.7372H33.8069ZM25.0427 46.0185C25.7547 46.0185 26.4888 45.8888 27.2661 45.6296C28.0431 45.3707 28.7338 44.8956 29.3169 44.2482C29.6621 43.8381 29.9213 43.3846 30.0506 42.8665C30.1798 42.3484 30.2665 41.7223 30.2665 40.9886V40.0817C29.6119 39.9224 28.9489 39.8 28.2807 39.7148C27.6075 39.6297 26.9297 39.5864 26.2512 39.5852C24.8048 39.5852 23.7473 39.8661 23.0349 40.4489C22.3226 41.0316 21.977 41.8519 21.977 42.9315C21.977 43.946 22.2363 44.7014 22.7757 45.2195C23.2941 45.7592 24.0498 46.0185 25.0427 46.0185ZM42.3766 48.3498C41.9881 48.3498 41.7289 48.2848 41.5563 48.1339C41.3837 48.0043 41.2324 47.7021 41.1031 47.2919L36.0303 30.6051C35.9004 30.1733 35.8357 29.8928 35.8357 29.7415C35.8357 29.3963 36.0083 29.2017 36.3538 29.2017H38.4693C38.8794 29.2017 39.1603 29.2667 39.3112 29.4176C39.4838 29.5472 39.6134 29.8494 39.743 30.2596L43.3695 44.5504L46.7374 30.2596C46.8453 29.8278 46.9746 29.5476 47.1475 29.4176C47.3201 29.2883 47.6223 29.202 48.0108 29.202H49.7377C50.1479 29.202 50.4288 29.2667 50.6014 29.4176C50.774 29.5472 50.9252 29.8494 51.0115 30.2596L54.4224 44.723L58.1568 30.2596C58.2864 29.8278 58.4376 29.5476 58.5886 29.4176C58.7612 29.2883 59.042 29.202 59.4305 29.202H61.438C61.7835 29.202 61.9778 29.3746 61.9778 29.7415C61.9778 29.8498 61.9561 29.9574 61.9345 30.087C61.9131 30.2166 61.8698 30.3889 61.7835 30.6268L56.5811 47.3136C56.4514 47.7454 56.3002 48.026 56.1276 48.1555C55.955 48.2848 55.6742 48.3714 55.3073 48.3714H53.4508C53.0406 48.3714 52.7601 48.3065 52.5875 48.1555C52.4146 48.0043 52.2636 47.7237 52.1773 47.2919L48.8311 33.3682L45.5069 47.2703C45.3989 47.7021 45.2693 47.9826 45.0967 48.1339C44.9238 48.2848 44.6216 48.3498 44.2331 48.3498H42.3766ZM70.1163 48.9325C68.9937 48.9325 67.8712 48.8029 66.7917 48.544C65.7125 48.2848 64.8705 48.0043 64.3091 47.6804C63.9639 47.4862 63.7264 47.2702 63.6401 47.076C63.5561 46.8855 63.512 46.6798 63.5105 46.4716V45.3707C63.5105 44.9173 63.683 44.7014 64.0069 44.7014C64.1366 44.7014 64.2661 44.723 64.3954 44.7663C64.525 44.8093 64.7193 44.8956 64.9352 44.9822C65.6977 45.3175 66.4937 45.5707 67.3098 45.7376C68.1553 45.9093 69.0159 45.9961 69.8787 45.9968C71.2388 45.9968 72.2963 45.7592 73.0303 45.2844C73.7644 44.8093 74.1529 44.1186 74.1529 43.2337C74.1529 42.6292 73.9586 42.1325 73.5701 41.7223C73.1816 41.3122 72.4476 40.9453 71.3897 40.5998L68.2597 39.6285C66.6838 39.1321 65.5179 38.3981 64.8056 37.4268C64.0932 36.4769 63.7264 35.4187 63.7264 34.2965C63.7264 33.39 63.9206 32.5912 64.3091 31.9002C64.6976 31.2095 65.2157 30.6051 65.8634 30.1303C66.5112 29.6335 67.2452 29.2667 68.1085 29.0075C68.9721 28.7482 69.8787 28.6406 70.8286 28.6406C71.3034 28.6406 71.7999 28.6623 72.275 28.7269C72.7715 28.7916 73.2246 28.8779 73.6781 28.9645C74.1099 29.0724 74.52 29.1804 74.9085 29.31C75.297 29.4393 75.5992 29.5688 75.8151 29.6985C76.1173 29.8711 76.3333 30.0437 76.4629 30.2379C76.5924 30.4107 76.6571 30.6483 76.6571 30.9506V31.9652C76.6571 32.4183 76.4845 32.6559 76.1607 32.6559C75.9877 32.6559 75.7072 32.5696 75.3403 32.3967C74.1099 31.8356 72.7282 31.555 71.1955 31.555C69.965 31.555 68.9937 31.7493 68.3244 32.1594C67.655 32.5696 67.3098 33.1957 67.3098 34.0806C67.3098 34.685 67.5257 35.2031 67.9575 35.6133C68.3893 36.0234 69.188 36.4336 70.3322 36.8004L73.3975 37.7717C74.9515 38.2685 76.0744 38.9592 76.7434 39.8445C77.4125 40.7297 77.7363 41.744 77.7363 42.8665C77.7363 43.7948 77.5421 44.6367 77.1752 45.3707C76.7867 46.1047 76.2686 46.7521 75.5992 47.2703C74.9302 47.81 74.1312 48.1985 73.2033 48.4794C72.2317 48.7816 71.2171 48.9325 70.1163 48.9325Z" fill="#252F3E"/>
<path fill-rule="evenodd" clip-rule="evenodd" d="M74.1965 59.424C67.0942 64.6697 56.7757 67.4545 47.9032 67.4545C35.4692 67.4545 24.2651 62.8562 15.803 55.2145C15.1337 54.6101 15.7384 53.7898 16.5371 54.2646C25.6901 59.5749 36.9802 62.7915 48.6589 62.7915C56.5381 62.7915 65.1947 61.1509 73.1603 57.7834C74.3474 57.2436 75.362 58.5604 74.1965 59.424Z" fill="#FF9900"/>
<path fill-rule="evenodd" clip-rule="evenodd" d="M77.1539 56.0565C76.2473 54.8906 71.1529 55.495 68.8429 55.7756C68.1522 55.8622 68.0442 55.2575 68.6703 54.8043C72.7285 51.9549 79.399 52.7752 80.1763 53.7248C80.9533 54.6964 79.9604 61.3668 76.161 64.5618C75.578 65.0582 75.0169 64.799 75.2758 64.1516C76.1394 62.0146 78.0606 57.2003 77.1539 56.0565Z" fill="#FF9900"/>
</svg>
