<svg width="96" height="96" viewBox="0 0 96 96" fill="none" xmlns="http://www.w3.org/2000/svg">
<path d="M70.3125 6H25.6875C14.8144 6 6 14.8144 6 25.6875V70.3125C6 81.1856 14.8144 90 25.6875 90H70.3125C81.1856 90 90 81.1856 90 70.3125V25.6875C90 14.8144 81.1856 6 70.3125 6Z" fill="#303131"/>
<mask id="mask0_56_43" style="mask-type:luminance" maskUnits="userSpaceOnUse" x="26" y="15" width="44" height="66">
<path d="M26.0156 15.1875H69.7744V80.8125H26.0156V15.1875Z" fill="white"/>
</mask>
<g mask="url(#mask0_56_43)">
<path d="M36.9576 80.8125C42.9951 80.8125 47.895 75.9126 47.895 69.8751V58.9374H36.9576C30.9201 58.9374 26.0199 63.8376 26.0199 69.8751C26.0199 75.9126 30.9201 80.8125 36.9576 80.8125Z" fill="#0ACF83"/>
<path d="M26.0199 48C26.0199 41.9625 30.9201 37.0626 36.9576 37.0626H47.895V58.9374H36.9576C30.9201 58.9374 26.0199 54.0375 26.0199 48Z" fill="#A259FF"/>
<path d="M26.0199 26.1249C26.0199 20.0874 30.9201 15.1875 36.9576 15.1875H47.895V37.0626H36.9576C30.9201 37.0626 26.0199 32.1624 26.0199 26.1249Z" fill="#F24E1E"/>
<path d="M47.895 15.1875H58.8324C64.8699 15.1875 69.7701 20.0874 69.7701 26.1249C69.7701 32.1624 64.8699 37.0626 58.8324 37.0626H47.895V15.1875Z" fill="#FF7262"/>
<path d="M69.7701 48C69.7701 54.0375 64.8699 58.9374 58.8324 58.9374C52.7949 58.9374 47.895 54.0375 47.895 48C47.895 41.9625 52.7949 37.0626 58.8324 37.0626C64.8699 37.0626 69.7701 41.9625 69.7701 48Z" fill="#1ABCFE"/>
</g>
</svg>
