<svg width="96" height="96" viewBox="0 0 96 96" fill="none" xmlns="http://www.w3.org/2000/svg">
<path d="M6 21C6 12.7157 12.7157 6 21 6H75C83.2843 6 90 12.7157 90 21V75C90 83.2843 83.2843 90 75 90H21C12.7157 90 6 83.2843 6 75V21Z" fill="#F5DE19"/>
<path d="M62.427 71.625C63.1439 73.0779 64.2561 74.299 65.6359 75.1481C67.0156 75.9972 68.607 76.4398 70.227 76.425C73.497 76.425 75.588 74.79 75.588 72.525C75.588 69.825 73.44 68.859 69.84 67.284L67.866 66.438C62.166 64.011 58.386 60.972 58.386 54.546C58.386 48.627 62.886 44.118 69.945 44.118C72.2301 43.9534 74.513 44.465 76.5093 45.589C78.5056 46.7131 80.1269 48.3998 81.171 50.439L75 54.384C74.5977 53.373 73.8978 52.5081 72.9929 51.9038C72.0881 51.2995 71.021 50.9843 69.933 51C69.4583 50.9525 68.9789 51.0044 68.5253 51.1524C68.0718 51.3003 67.654 51.5412 67.2987 51.8596C66.9434 52.1779 66.6582 52.5668 66.4615 53.0014C66.2648 53.4361 66.1607 53.9069 66.156 54.384C66.156 56.751 67.623 57.711 71.01 59.184L72.984 60.03C79.692 62.907 83.484 65.838 83.484 72.429C83.484 79.536 77.901 83.43 70.404 83.43C67.4832 83.6142 64.5714 82.9502 62.0193 81.5179C59.4671 80.0856 57.3834 77.9461 56.019 75.357L62.427 71.625ZM34.542 72.309C35.781 74.508 36.909 76.368 39.621 76.368C42.213 76.368 43.851 75.354 43.851 71.409V44.568H51.744V71.514C51.744 79.686 46.944 83.406 39.957 83.406C37.4873 83.541 35.0345 82.9255 32.9211 81.6404C30.8077 80.3554 29.1326 78.4609 28.116 76.206L34.542 72.309Z" fill="black"/>
</svg>
