<svg width="96" height="96" viewBox="0 0 96 96" fill="none" xmlns="http://www.w3.org/2000/svg">
<path d="M70.3125 6H25.6875C14.8144 6 6 14.8144 6 25.6875V70.3125C6 81.1856 14.8144 90 25.6875 90H70.3125C81.1856 90 90 81.1856 90 70.3125V25.6875C90 14.8144 81.1856 6 70.3125 6Z" fill="#F4F2ED"/>
<path fill-rule="evenodd" clip-rule="evenodd" d="M64.8885 23.673L64.1247 26.3445H69.4391L70.1963 23.673H64.8885ZM57.5746 28.3482L56.804 31.0197H68.1105L68.8677 28.3482H57.5746ZM50.0547 35.6949L50.8253 33.0233H67.5392L66.7819 35.6949H50.0547ZM30.2452 37.6985L29.4747 40.3701H65.4533L66.2106 37.6985H30.2452ZM31.5937 45.0452L32.3643 42.3737H64.882L64.1247 45.0452H31.5937ZM33.4472 73.0963L34.2177 70.4247H28.8967L28.146 73.0963H33.4472ZM41.5384 65.7495L40.7678 68.4211H29.4747L30.2253 65.7495H41.5384ZM47.5171 63.746L48.2876 61.0743H31.5538L30.8032 63.746H47.5171ZM68.8677 56.3993L68.0974 59.0708H32.1318L32.8825 56.3993H68.8677ZM65.9714 54.3956L66.7422 51.724H34.2111L33.4605 54.3956H65.9714ZM63.6595 47.0489L62.8891 49.7204H32.3842L33.1349 47.0489H63.6595Z" fill="#805CFB"/>
</svg>
